<svg width="251" height="13" viewBox="0 0 251 13" fill="none" xmlns="http://www.w3.org/2000/svg">
<path d="M0.306 13L2.538 0.399999H16.65L14.418 13H12.042L13.914 2.452H4.554L2.682 13H0.306ZM20.09 13C18.95 13 18.128 12.7 17.624 12.1C17.132 11.5 16.988 10.624 17.192 9.472L18.236 3.568C18.44 2.416 18.824 1.6 19.388 1.12C19.952 0.639999 20.81 0.399999 21.962 0.399999H29.918C31.058 0.399999 31.874 0.699999 32.366 1.3C32.87 1.9 33.02 2.776 32.816 3.928L31.772 9.832C31.568 10.984 31.184 11.8 30.62 12.28C30.056 12.76 29.198 13 28.046 13H20.09ZM21.188 11.02H27.452C28.112 11.02 28.586 10.894 28.874 10.642C29.174 10.39 29.378 9.934 29.486 9.274L30.368 4.27C30.488 3.61 30.422 3.13 30.17 2.83C29.93 2.53 29.48 2.38 28.82 2.38H22.556C21.896 2.38 21.416 2.506 21.116 2.758C20.828 3.01 20.63 3.466 20.522 4.126L19.64 9.13C19.52 9.79 19.58 10.27 19.82 10.57C20.072 10.87 20.528 11.02 21.188 11.02ZM42.1154 13C40.9754 13 40.1534 12.7 39.6494 12.1C39.1574 11.5 39.0134 10.624 39.2174 9.472L40.2614 3.568C40.4654 2.416 40.8494 1.6 41.4134 1.12C41.9774 0.639999 42.8354 0.399999 43.9874 0.399999H51.5114C52.6514 0.399999 53.4674 0.699999 53.9594 1.3C54.4634 1.9 54.6134 2.776 54.4094 3.928L54.2114 5.08H51.8894L52.0514 4.234C52.1714 3.574 52.1054 3.094 51.8534 2.794C51.6014 2.494 51.1454 2.344 50.4854 2.344H44.5994C43.9394 2.344 43.4594 2.47 43.1594 2.722C42.8714 2.974 42.6674 3.43 42.5474 4.09L41.6474 9.166C41.5394 9.826 41.6054 10.306 41.8454 10.606C42.0974 10.906 42.5534 11.056 43.2134 11.056H49.0994C49.7594 11.056 50.2334 10.93 50.5214 10.678C50.8214 10.426 51.0314 9.97 51.1514 9.31L51.3494 8.158H53.6534L53.3654 9.832C53.1614 10.984 52.7774 11.8 52.2134 12.28C51.6494 12.76 50.7914 13 49.6394 13H42.1154ZM69.2681 2.326H59.1161L58.5401 5.584H67.9721L67.6661 7.348H58.2341L57.5681 11.074H67.9001L67.5581 13H54.8861L57.1181 0.399999H69.6101L69.2681 2.326ZM69.3001 13L71.5321 0.399999H84.3661L84.0421 2.218H73.5661L72.9721 5.566H81.8101C82.6861 5.566 83.3161 5.8 83.7001 6.268C84.0841 6.736 84.1981 7.408 84.0421 8.284L83.6461 10.588C83.4901 11.464 83.1961 12.088 82.7641 12.46C82.3321 12.82 81.6781 13 80.8021 13H69.3001ZM71.9821 11.2H80.0461C80.4901 11.2 80.8021 11.116 80.9821 10.948C81.1741 10.78 81.3061 10.474 81.3781 10.03L81.6481 8.518C81.7321 8.05 81.6841 7.714 81.5041 7.51C81.3361 7.306 81.0241 7.204 80.5681 7.204H72.6661L71.9821 11.2ZM99.6079 2.326H89.4559L88.8799 5.584H98.3119L98.0059 7.348H88.5739L87.9079 11.074H98.2399L97.8979 13H85.2259L87.4579 0.399999H99.9499L99.6079 2.326ZM103.006 13C101.866 13 101.044 12.7 100.54 12.1C100.048 11.5 99.904 10.624 100.108 9.472L101.152 3.568C101.356 2.416 101.74 1.6 102.304 1.12C102.868 0.639999 103.726 0.399999 104.878 0.399999H112.402C113.542 0.399999 114.358 0.699999 114.85 1.3C115.354 1.9 115.504 2.776 115.3 3.928L115.102 5.08H112.78L112.942 4.234C113.062 3.574 112.996 3.094 112.744 2.794C112.492 2.494 112.036 2.344 111.376 2.344H105.49C104.83 2.344 104.35 2.47 104.05 2.722C103.762 2.974 103.558 3.43 103.438 4.09L102.538 9.166C102.43 9.826 102.496 10.306 102.736 10.606C102.988 10.906 103.444 11.056 104.104 11.056H109.99C110.65 11.056 111.124 10.93 111.412 10.678C111.712 10.426 111.922 9.97 112.042 9.31L112.24 8.158H114.544L114.256 9.832C114.052 10.984 113.668 11.8 113.104 12.28C112.54 12.76 111.682 13 110.53 13H103.006ZM130.758 0.399999L130.398 2.452H124.656L122.802 13H120.426L122.28 2.452H116.574L116.934 0.399999H130.758ZM133.117 13C131.977 13 131.155 12.7 130.651 12.1C130.159 11.5 130.015 10.624 130.219 9.472L131.263 3.568C131.467 2.416 131.851 1.6 132.415 1.12C132.979 0.639999 133.837 0.399999 134.989 0.399999H142.945C144.085 0.399999 144.901 0.699999 145.393 1.3C145.897 1.9 146.047 2.776 145.843 3.928L144.799 9.832C144.595 10.984 144.211 11.8 143.647 12.28C143.083 12.76 142.225 13 141.073 13H133.117ZM134.215 11.02H140.479C141.139 11.02 141.613 10.894 141.901 10.642C142.201 10.39 142.405 9.934 142.513 9.274L143.395 4.27C143.515 3.61 143.449 3.13 143.197 2.83C142.957 2.53 142.507 2.38 141.847 2.38H135.583C134.923 2.38 134.443 2.506 134.143 2.758C133.855 3.01 133.657 3.466 133.549 4.126L132.667 9.13C132.547 9.79 132.607 10.27 132.847 10.57C133.099 10.87 133.555 11.02 134.215 11.02ZM161.068 0.399999H163.084L160.852 13H158.548L160.222 3.604L148.288 13H146.38L148.612 0.399999H150.916L149.26 9.706L161.068 0.399999ZM179.62 0.399999H181.798L179.566 13H177.298L178.918 3.892L172.438 10.588H171.142L167.038 3.874L165.418 13H163.15L165.382 0.399999H167.326L172.078 8.302L179.62 0.399999ZM185.236 13C184.096 13 183.274 12.7 182.77 12.1C182.278 11.5 182.134 10.624 182.338 9.472L183.382 3.568C183.586 2.416 183.97 1.6 184.534 1.12C185.098 0.639999 185.956 0.399999 187.108 0.399999H195.064C196.204 0.399999 197.02 0.699999 197.512 1.3C198.016 1.9 198.166 2.776 197.962 3.928L196.918 9.832C196.714 10.984 196.33 11.8 195.766 12.28C195.202 12.76 194.344 13 193.192 13H185.236ZM186.334 11.02H192.598C193.258 11.02 193.732 10.894 194.02 10.642C194.32 10.39 194.524 9.934 194.632 9.274L195.514 4.27C195.634 3.61 195.568 3.13 195.316 2.83C195.076 2.53 194.626 2.38 193.966 2.38H187.702C187.042 2.38 186.562 2.506 186.262 2.758C185.974 3.01 185.776 3.466 185.668 4.126L184.786 9.13C184.666 9.79 184.726 10.27 184.966 10.57C185.218 10.87 185.674 11.02 186.334 11.02ZM201.865 13C200.725 13 199.903 12.7 199.399 12.1C198.907 11.5 198.763 10.624 198.967 9.472L200.011 3.568C200.215 2.416 200.599 1.6 201.163 1.12C201.727 0.639999 202.585 0.399999 203.737 0.399999H211.261C212.401 0.399999 213.217 0.699999 213.709 1.3C214.213 1.9 214.363 2.776 214.159 3.928L213.961 5.08H211.639L211.801 4.234C211.921 3.574 211.855 3.094 211.603 2.794C211.351 2.494 210.895 2.344 210.235 2.344H204.349C203.689 2.344 203.209 2.47 202.909 2.722C202.621 2.974 202.417 3.43 202.297 4.09L201.397 9.166C201.289 9.826 201.355 10.306 201.595 10.606C201.847 10.906 202.303 11.056 202.963 11.056H208.849C209.509 11.056 209.983 10.93 210.271 10.678C210.571 10.426 210.781 9.97 210.901 9.31L211.099 8.158H213.403L213.115 9.832C212.911 10.984 212.527 11.8 211.963 12.28C211.399 12.76 210.541 13 209.389 13H201.865ZM229.617 0.399999L229.257 2.452H223.515L221.661 13H219.285L221.139 2.452H215.433L215.793 0.399999H229.617ZM243.51 0.399999H245.526L243.294 13H240.99L242.664 3.604L230.73 13H228.822L231.054 0.399999H233.358L231.702 9.706L243.51 0.399999ZM247.895 0.399999H250.505L248.471 9.328H246.761L247.895 0.399999ZM245.609 13L246.005 10.696H248.741L248.345 13H245.609Z" fill="#CACACA"/>
</svg>
