<svg width="140" height="10" viewBox="0 0 140 10" fill="none" xmlns="http://www.w3.org/2000/svg">
<path d="M0.238 10L1.974 0.199999H10.206C11.8393 0.199999 12.5113 1.02133 12.222 2.664L11.914 4.442C11.774 5.27267 11.5127 5.84667 11.13 6.164C10.7567 6.48133 10.1593 6.64 9.338 6.64H2.688L2.086 10H0.238ZM2.926 5.268H8.792C9.24 5.268 9.55267 5.19333 9.73 5.044C9.90733 4.88533 10.0333 4.582 10.108 4.134L10.346 2.874C10.43 2.41667 10.3927 2.09467 10.234 1.908C10.0753 1.72133 9.76733 1.628 9.31 1.628H3.57L2.926 5.268ZM21.0778 10L20.3078 7.816H13.7558L12.2018 10H10.1018L17.2978 0.199999H19.3138L23.0238 10H21.0778ZM14.7498 6.402H19.8038L18.1098 1.656L14.7498 6.402ZM26.0708 10C25.1842 10 24.5448 9.76667 24.1528 9.3C23.7702 8.83333 23.6582 8.152 23.8168 7.256L24.6288 2.664C24.7875 1.768 25.0862 1.13333 25.5248 0.76C25.9635 0.386666 26.6308 0.199999 27.5268 0.199999H33.3788C34.2655 0.199999 34.9002 0.433333 35.2828 0.899999C35.6748 1.36667 35.7915 2.048 35.6328 2.944L35.4788 3.84H33.6728L33.7988 3.182C33.8922 2.66867 33.8408 2.29533 33.6448 2.062C33.4488 1.82867 33.0942 1.712 32.5808 1.712H28.0028C27.4895 1.712 27.1162 1.81 26.8828 2.006C26.6588 2.202 26.5002 2.55667 26.4068 3.07L25.7068 7.018C25.6228 7.53133 25.6742 7.90467 25.8608 8.138C26.0568 8.37133 26.4115 8.488 26.9248 8.488H31.5028C32.0162 8.488 32.3848 8.39 32.6088 8.194C32.8422 7.998 33.0055 7.64333 33.0988 7.13L33.2528 6.234H35.0448L34.8208 7.536C34.6622 8.432 34.3635 9.06667 33.9248 9.44C33.4862 9.81333 32.8188 10 31.9228 10H26.0708ZM38.6216 10C37.735 10 37.0956 9.76667 36.7036 9.3C36.321 8.83333 36.209 8.152 36.3676 7.256L37.1796 2.664C37.3383 1.768 37.637 1.13333 38.0756 0.76C38.5143 0.386666 39.1816 0.199999 40.0776 0.199999H45.9296C46.8163 0.199999 47.451 0.433333 47.8336 0.899999C48.2256 1.36667 48.3423 2.048 48.1836 2.944L48.0296 3.84H46.2236L46.3496 3.182C46.443 2.66867 46.3916 2.29533 46.1956 2.062C45.9996 1.82867 45.645 1.712 45.1316 1.712H40.5536C40.0403 1.712 39.667 1.81 39.4336 2.006C39.2096 2.202 39.051 2.55667 38.9576 3.07L38.2576 7.018C38.1736 7.53133 38.225 7.90467 38.4116 8.138C38.6076 8.37133 38.9623 8.488 39.4756 8.488H44.0536C44.567 8.488 44.9356 8.39 45.1596 8.194C45.393 7.998 45.5563 7.64333 45.6496 7.13L45.8036 6.234H47.5956L47.3716 7.536C47.213 8.432 46.9143 9.06667 46.4756 9.44C46.037 9.81333 45.3696 10 44.4736 10H38.6216ZM48.5544 10L50.2904 0.199999H58.5224C60.1557 0.199999 60.8277 1.02133 60.5384 2.664L60.2304 4.442C60.0904 5.27267 59.8291 5.84667 59.4464 6.164C59.0731 6.48133 58.4757 6.64 57.6544 6.64H51.0044L50.4024 10H48.5544ZM51.2424 5.268H57.1084C57.5564 5.268 57.8691 5.19333 58.0464 5.044C58.2237 4.88533 58.3497 4.582 58.4244 4.134L58.6624 2.874C58.7464 2.41667 58.7091 2.09467 58.5504 1.908C58.3917 1.72133 58.0837 1.628 57.6264 1.628H51.8864L51.2424 5.268ZM63.2173 10C62.3307 10 61.6913 9.76667 61.2993 9.3C60.9167 8.83333 60.8047 8.152 60.9633 7.256L61.7753 2.664C61.934 1.768 62.2327 1.13333 62.6713 0.76C63.11 0.386666 63.7773 0.199999 64.6733 0.199999H70.8613C71.748 0.199999 72.3827 0.433333 72.7653 0.899999C73.1573 1.36667 73.274 2.048 73.1153 2.944L72.3033 7.536C72.1447 8.432 71.846 9.06667 71.4073 9.44C70.9687 9.81333 70.3013 10 69.4053 10H63.2173ZM64.0713 8.46H68.9433C69.4567 8.46 69.8253 8.362 70.0493 8.166C70.2827 7.97 70.4413 7.61533 70.5253 7.102L71.2113 3.21C71.3047 2.69667 71.2533 2.32333 71.0573 2.09C70.8707 1.85667 70.5207 1.74 70.0073 1.74H65.1353C64.622 1.74 64.2487 1.838 64.0153 2.034C63.7913 2.23 63.6373 2.58467 63.5533 3.098L62.8673 6.99C62.774 7.50333 62.8207 7.87667 63.0073 8.11C63.2033 8.34333 63.558 8.46 64.0713 8.46ZM82.0449 10L82.6749 6.472H76.1789C74.5456 6.472 73.8736 5.65067 74.1629 4.008L74.8209 0.199999H76.6689L76.0669 3.63C75.9829 4.08733 76.0203 4.40933 76.1789 4.596C76.3376 4.78267 76.6456 4.876 77.1029 4.876H82.9549L83.7809 0.199999H85.6289L83.8929 10H82.0449ZM98.2732 0.199999L90.7132 5.002L96.5932 10H93.7512L88.2632 5.128L87.3952 10H85.5612L87.2972 0.199999H89.1312L88.3332 4.736L95.1932 0.199999H98.2732ZM107.785 10L107.015 7.816H100.463L98.9088 10H96.8088L104.005 0.199999H106.021L109.731 10H107.785ZM101.457 6.402H106.511L104.817 1.656L101.457 6.402ZM117.594 10C116.707 10 116.068 9.76667 115.676 9.3C115.293 8.83333 115.181 8.152 115.34 7.256L116.152 2.664C116.311 1.768 116.609 1.13333 117.048 0.76C117.487 0.386666 118.154 0.199999 119.05 0.199999H124.09C124.977 0.199999 125.611 0.433333 125.994 0.899999C126.386 1.36667 126.503 2.048 126.344 2.944L125.532 7.536C125.373 8.432 125.075 9.06667 124.636 9.44C124.197 9.81333 123.53 10 122.634 10H117.594ZM118.392 8.516H122.228C122.732 8.516 123.096 8.418 123.32 8.222C123.553 8.01667 123.717 7.65733 123.81 7.144L124.51 3.154C124.603 2.64067 124.552 2.26733 124.356 2.034C124.16 1.80067 123.805 1.684 123.292 1.684H119.47C118.957 1.684 118.583 1.78667 118.35 1.992C118.126 2.188 117.967 2.54267 117.874 3.056L117.174 7.046C117.09 7.55933 117.141 7.93267 117.328 8.166C117.524 8.39933 117.879 8.516 118.392 8.516ZM132.942 4.33C132.858 4.82467 132.69 5.17933 132.438 5.394C132.186 5.60867 131.812 5.716 131.318 5.716H128.938C128.443 5.716 128.084 5.58067 127.86 5.31C127.636 5.03933 127.566 4.65667 127.65 4.162L127.902 2.706C127.986 2.202 128.154 1.84733 128.406 1.642C128.658 1.42733 129.036 1.32 129.54 1.32H131.92C132.414 1.32 132.769 1.45533 132.984 1.726C133.208 1.98733 133.278 2.37 133.194 2.874L132.942 4.33ZM127.846 10L138.066 1.32H139.368L129.134 10H127.846ZM129.358 4.792H131.108C131.369 4.792 131.556 4.74067 131.668 4.638C131.789 4.53533 131.873 4.35333 131.92 4.092L132.116 3.014C132.162 2.74333 132.134 2.54733 132.032 2.426C131.938 2.30467 131.756 2.244 131.486 2.244H129.736C129.474 2.244 129.283 2.29533 129.162 2.398C129.05 2.49133 128.97 2.67333 128.924 2.944L128.742 4.022C128.648 4.53533 128.854 4.792 129.358 4.792ZM135.28 10C134.785 10 134.426 9.86467 134.202 9.594C133.987 9.32333 133.922 8.94067 134.006 8.446L134.258 6.99C134.342 6.486 134.51 6.13133 134.762 5.926C135.014 5.71133 135.392 5.604 135.896 5.604H138.276C139.284 5.604 139.704 6.122 139.536 7.158L139.298 8.614C139.214 9.10867 139.041 9.46333 138.78 9.678C138.528 9.89267 138.154 10 137.66 10H135.28ZM135.714 9.076H137.464C137.725 9.076 137.912 9.02467 138.024 8.922C138.145 8.81933 138.229 8.63733 138.276 8.376L138.472 7.298C138.509 7.02733 138.476 6.83133 138.374 6.71C138.28 6.58867 138.103 6.528 137.842 6.528H136.092C135.821 6.528 135.63 6.57933 135.518 6.682C135.406 6.77533 135.326 6.95733 135.28 7.228L135.084 8.306C135 8.81933 135.21 9.076 135.714 9.076Z" fill="#CACACA"/>
</svg>
