<svg width="97" height="16" viewBox="0 0 97 16" fill="none" xmlns="http://www.w3.org/2000/svg">
<path d="M3.672 13C2.532 13 1.71 12.7 1.206 12.1C0.714 11.5 0.57 10.624 0.774 9.472L1.818 3.568C2.022 2.416 2.406 1.6 2.97 1.12C3.534 0.639999 4.392 0.399999 5.544 0.399999H13.5C14.64 0.399999 15.456 0.699999 15.948 1.3C16.452 1.9 16.602 2.776 16.398 3.928L15.354 9.832C15.15 10.984 14.766 11.8 14.202 12.28C13.638 12.76 12.78 13 11.628 13H3.672ZM4.77 11.02H11.034C11.694 11.02 12.168 10.894 12.456 10.642C12.756 10.39 12.96 9.934 13.068 9.274L13.95 4.27C14.07 3.61 14.004 3.13 13.752 2.83C13.512 2.53 13.062 2.38 12.402 2.38H6.138C5.478 2.38 4.998 2.506 4.698 2.758C4.41 3.01 4.212 3.466 4.104 4.126L3.222 9.13C3.102 9.79 3.162 10.27 3.402 10.57C3.654 10.87 4.11 11.02 4.77 11.02ZM31.916 0.399999L31.556 2.452H25.814L23.96 13H21.584L23.438 2.452H17.732L18.092 0.399999H31.916ZM46.1327 0.399999L44.2607 11.02H45.7727L45.0527 15.16H42.8207L43.1987 13H30.9947L30.6167 15.16H28.3847L29.1047 11.02H29.8607C30.4367 11.02 30.8507 10.918 31.1027 10.714C31.3667 10.498 31.5647 10.102 31.6967 9.526L33.8927 0.399999H46.1327ZM34.1447 9.328C33.9527 10.06 33.7247 10.624 33.4607 11.02H41.8847L43.3967 2.452H35.8187L34.1447 9.328ZM59.8129 13L58.8229 10.192H50.3989L48.4009 13H45.7009L54.9529 0.399999H57.5449L62.3149 13H59.8129ZM51.6769 8.374H58.1749L55.9969 2.272L51.6769 8.374ZM77.8462 2.326H67.6942L67.1182 5.584H76.5502L76.2442 7.348H66.8122L66.1462 11.074H76.4782L76.1362 13H63.4642L65.6962 0.399999H78.1882L77.8462 2.326ZM94.3483 0.399999H96.5263L94.2943 13H92.0263L93.6463 3.892L87.1663 10.588H85.8703L81.7663 3.874L80.1463 13H77.8783L80.1103 0.399999H82.0543L86.8063 8.302L94.3483 0.399999Z" fill="#CACACA"/>
</svg>
