<svg width="93" height="12" viewBox="0 0 93 12" fill="none" xmlns="http://www.w3.org/2000/svg">
<path d="M13.68 7.84L13.408 9.392H10.528L10.064 12H8.048L8.512 9.392H0.32L0.544 8.096L9.664 0.799999H12.048L10.8 7.84H13.68ZM3.04 7.84H8.784L9.728 2.464L3.04 7.84ZM13.5609 12L18.9369 7.696L15.2249 3.552H17.7849L20.4249 6.704L24.1529 3.552H26.9529L21.7689 7.696L25.6089 12H23.0329L20.2649 8.688L16.3609 12H13.5609ZM40.0863 7.84L39.8143 9.392H36.9343L36.4703 12H34.4543L34.9183 9.392H26.7263L26.9503 8.096L36.0703 0.799999H38.4543L37.2063 7.84H40.0863ZM29.4463 7.84H35.1903L36.1343 2.464L29.4463 7.84ZM57.292 12L56.412 9.504H48.924L47.148 12H44.748L52.972 0.799999H55.276L59.516 12H57.292ZM50.06 7.888H55.836L53.9 2.464L50.06 7.888ZM76.976 0.799999H79.328L72.624 12H70.768L68.784 3.584L63.824 12H62L59.264 0.799999H61.504L63.424 9.424L68.416 0.799999H70.032L72 9.44L76.976 0.799999ZM78.397 12L80.381 0.799999H89.341C90.525 0.799999 91.4103 1.152 91.997 1.856C92.5837 2.56 92.7703 3.50933 92.557 4.704L91.869 8.544C91.6557 9.76 91.2237 10.64 90.573 11.184C89.933 11.728 89.0103 12 87.805 12H78.397ZM80.829 10.24H87.533C88.2263 10.24 88.749 10.0907 89.101 9.792C89.453 9.49333 89.6877 8.99733 89.805 8.304L90.445 4.704C90.5623 4.01067 90.4663 3.48267 90.157 3.12C89.8583 2.74667 89.3623 2.56 88.669 2.56H82.173L80.829 10.24Z" fill="white"/>
</svg>
