<svg width="170" height="12" viewBox="0 0 170 12" fill="none" xmlns="http://www.w3.org/2000/svg">
<path d="M0.84 0.799999H12.808L12.536 2.336L7.032 6.752C6.54133 7.14667 6.2 7.52533 6.008 7.888C5.816 8.24 5.66133 8.752 5.544 9.424L5.08 12H3L3.48 9.296C3.65067 8.37867 3.86933 7.66933 4.136 7.168C4.40267 6.66667 4.86133 6.17067 5.512 5.68L9.528 2.56H0.52L0.84 0.799999ZM16.4884 12L16.8084 10.24H17.3204C17.8324 10.24 18.195 10.1493 18.4084 9.968C18.6217 9.78667 18.787 9.44 18.9044 8.928L20.8724 0.799999H31.7524L29.7684 12H27.6564L29.3204 2.624H22.5684L20.9524 9.312C20.7177 10.272 20.355 10.96 19.8644 11.376C19.3844 11.792 18.675 12 17.7364 12H16.4884ZM44.6029 2.512H35.5789L35.0669 5.408H43.4509L43.1789 6.976H34.7949L34.2029 10.288H43.3869L43.0829 12H31.8189L33.8029 0.799999H44.9069L44.6029 2.512ZM58.1354 0.799999L57.8154 2.624H52.7114L51.0634 12H48.9514L50.5994 2.624H45.5274L45.8474 0.799999H58.1354ZM74.7051 0.799999L74.4011 2.624H66.0011L64.3531 12H62.2411L64.2091 0.799999H74.7051ZM82.4483 12L81.5683 9.504H74.0803L72.3043 12H69.9042L78.1283 0.799999H80.4323L84.6723 12H82.4483ZM75.2163 7.888H80.9923L79.0563 2.464L75.2163 7.888ZM85.6939 12L87.6779 0.799999H97.0859C98.9525 0.799999 99.7205 1.73867 99.3899 3.616L99.0379 5.648C98.8779 6.59733 98.5792 7.25333 98.1419 7.616C97.7152 7.97867 97.0325 8.16 96.0939 8.16H88.4939L87.8059 12H85.6939ZM88.7659 6.592H95.4699C95.9819 6.592 96.3392 6.50667 96.5419 6.336C96.7445 6.15467 96.8885 5.808 96.9739 5.296L97.2459 3.856C97.3419 3.33333 97.2992 2.96533 97.1179 2.752C96.9365 2.53867 96.5845 2.432 96.0619 2.432H89.5019L88.7659 6.592ZM109.511 12L108.631 9.504H101.143L99.3668 12H96.9667L105.191 0.799999H107.495L111.735 12H109.511ZM102.279 7.888H108.055L106.119 2.464L102.279 7.888ZM125.076 0.799999H127.188L125.204 12H123.092L123.972 7.056H115.652L114.772 12H112.66L114.644 0.799999H116.756L115.972 5.232H124.292L125.076 0.799999ZM140.854 0.799999L140.534 2.624H135.43L133.782 12H131.67L133.318 2.624H128.246L128.566 0.799999H140.854ZM153.203 0.799999H154.995L153.011 12H150.963L152.451 3.648L141.843 12H140.147L142.131 0.799999H144.179L142.707 9.072L153.203 0.799999ZM168.109 0.799999H169.901L167.917 12H165.869L167.357 3.648L156.749 12H155.053L157.037 0.799999H159.085L157.613 9.072L168.109 0.799999Z" fill="white"/>
</svg>
