<svg width="75" height="12" viewBox="0 0 75 12" fill="none" xmlns="http://www.w3.org/2000/svg">
<path d="M0.84 0.799999H12.808L12.536 2.336L7.032 6.752C6.54133 7.14667 6.2 7.52533 6.008 7.888C5.816 8.24 5.66133 8.752 5.544 9.424L5.08 12H3L3.48 9.296C3.65067 8.37867 3.86933 7.66933 4.136 7.168C4.40267 6.66667 4.86133 6.17067 5.512 5.68L9.528 2.56H0.52L0.84 0.799999ZM31.8964 0.799999H33.8324L31.8484 12H29.8324L31.2724 3.904L25.5124 9.856H24.3604L20.7124 3.888L19.2724 12H17.2564L19.2404 0.799999H20.9684L25.1924 7.824L31.8964 0.799999ZM46.681 2.512H37.657L37.145 5.408H45.529L45.257 6.976H36.873L36.281 10.288H45.465L45.161 12H33.897L35.881 0.799999H46.985L46.681 2.512ZM49.7015 12C48.6882 12 47.9575 11.7333 47.5095 11.2C47.0722 10.6667 46.9442 9.888 47.1255 8.864L48.0535 3.616C48.2348 2.592 48.5762 1.86667 49.0775 1.44C49.5788 1.01333 50.3415 0.799999 51.3655 0.799999H58.0535C59.0668 0.799999 59.7922 1.06667 60.2295 1.6C60.6775 2.13333 60.8108 2.912 60.6295 3.936L60.4535 4.96H58.3895L58.5335 4.208C58.6402 3.62133 58.5815 3.19467 58.3575 2.928C58.1335 2.66133 57.7282 2.528 57.1415 2.528H51.9095C51.3228 2.528 50.8962 2.64 50.6295 2.864C50.3735 3.088 50.1922 3.49333 50.0855 4.08L49.2855 8.592C49.1895 9.17867 49.2482 9.60533 49.4615 9.872C49.6855 10.1387 50.0908 10.272 50.6775 10.272H55.9095C56.4962 10.272 56.9175 10.16 57.1735 9.936C57.4402 9.712 57.6268 9.30667 57.7335 8.72L57.9095 7.696H59.9575L59.7015 9.184C59.5202 10.208 59.1788 10.9333 58.6775 11.36C58.1762 11.7867 57.4135 12 56.3895 12H49.7015ZM74.3698 0.799999L74.0498 2.624H68.9458L67.2978 12H65.1858L66.8338 2.624H61.7618L62.0818 0.799999H74.3698Z" fill="white"/>
</svg>
